<svg width="16" height="16" viewBox="0 0 16 16" fill="none" xmlns="http://www.w3.org/2000/svg">
<path fill-rule="evenodd" clip-rule="evenodd" d="M6.66659 2.66659C4.45745 2.66659 2.66659 4.45745 2.66659 6.66659C2.66659 8.87572 4.45745 10.6666 6.66659 10.6666C8.87572 10.6666 10.6666 8.87572 10.6666 6.66659C10.6666 4.45745 8.87572 2.66659 6.66659 2.66659ZM1.33325 6.66659C1.33325 3.72107 3.72107 1.33325 6.66659 1.33325C9.6121 1.33325 11.9999 3.72107 11.9999 6.66659C11.9999 7.89904 11.5819 9.03386 10.8798 9.93698L14.4713 13.5285C14.7317 13.7889 14.7317 14.211 14.4713 14.4713C14.211 14.7317 13.7889 14.7317 13.5285 14.4713L9.93705 10.8798C9.03392 11.5819 7.89907 11.9999 6.66659 11.9999C3.72107 11.9999 1.33325 9.6121 1.33325 6.66659Z"/>
</svg>
